# xmcd CD database file
#
# Track frame offsets:
#	150
#	59814
#	81282
#	91264
#	104394
#	134089
#	149859
#	173070
#	203278
#	216802
#	223068
#	236940
#	246075
#	251721
#	258736
#	264442
#	278068
#	299620
#	339808
#
# Disc length: 4709 seconds
#
# Revision: 0
# Processed by: cddbd v1.5.2PL0 Copyright (c) Steve Scherf et al.
# Submitted via: CDex 1.70beta2
#
DISCID=39126313
DTITLE=Various Artist - image classique - ravel 1
DYEAR=2006
DGENRE=New Age
TTITLE0=La Valse
TTITLE1=Rapsodie Espagnole:Prelude a la nuit
TTITLE2=Rapsodie Espagnole:Malaguena
TTITLE3=Rapsodie Espagnole:Habanera
TTITLE4=Rapsodie Espagnole:Feria
TTITLE5=Ma Mere l'Oye:Le Jardin feerique
TTITLE6=Sonate pour Violon et Piano:II.Blues
TTITLE7=Menuet antique
TTITLE8=Sonatine:II.Menuet
TTITLE9=Valses nobles et sentimentales:I.Modere
TTITLE10=Valses nobles et sentimentales:II.Assez lent
TTITLE11=Valses nobles et sentimentales:III.Modere
TTITLE12=Valses nobles et sentimentales:IV.Assez anime
TTITLE13=Valses nobles et sentimentales:V.Presque lent
TTITLE14=Valses nobles et sentimentales:VI.Vif
TTITLE15=Valses nobles et sentimentales:VII.Moins vif
TTITLE16=Valses nobles et sentimentales:VIII.Epilogue
TTITLE17=Quatour pour instruments a cordes:I.Allegro moderato. Tres doux
TTITLE18=La Tombeau de Couperin:IV.Rigaudon
EXTD=YEAR: 2006
EXTT0=
EXTT1=
EXTT2=
EXTT3=
EXTT4=
EXTT5=
EXTT6=
EXTT7=
EXTT8=
EXTT9=
EXTT10=
EXTT11=
EXTT12=
EXTT13=
EXTT14=
EXTT15=
EXTT16=
EXTT17=
EXTT18=
PLAYORDER=
